<svg width="33" height="32" viewBox="0 0 33 32" fill="none" xmlns="http://www.w3.org/2000/svg">
<g clip-path="url(#clip0_54_499)">
<path d="M24.5703 0H7.57031C3.42818 0 0.0703125 3.35786 0.0703125 7.5V24.5C0.0703125 28.6421 3.42818 32 7.57031 32H24.5703C28.7124 32 32.0703 28.6421 32.0703 24.5V7.5C32.0703 3.35786 28.7124 0 24.5703 0Z" fill="#155DFC"/>
<path d="M6.78944 12.8314L7.14719 16.8241H16.0823V12.8314H6.78944ZM16.0822 4.75H6.07031L6.43331 8.74275H16.0822V4.75ZM16.0822 27.3551V23.201L16.0647 23.2056L11.6179 22.005L11.3337 18.8205H7.32556L7.88494 25.0898L16.0638 27.3603L16.0822 27.3551Z" fill="white"/>
<path d="M20.985 16.8241L20.5215 22.0024L16.0684 23.2044V27.3582L24.2537 25.0898L24.3137 24.4151L25.252 13.9036L25.3494 12.8314L26.0702 4.75H16.0684V8.74275H21.6945L21.3312 12.8314H16.0684V16.8241H20.985Z" fill="white"/>
</g>
<defs>
<clipPath id="clip0_54_499">
<rect width="32" height="32" fill="white" transform="translate(0.0703125)"/>
</clipPath>
</defs>
</svg>
