<svg width="32" height="32" viewBox="0 0 32 32" fill="none" xmlns="http://www.w3.org/2000/svg">
<path d="M13.5136 3.17115L12.1216 4.56315L14.0316 6.47315L16.0316 8.47315C16.4872 8.2478 16.9927 8.14245 17.5003 8.16707C18.0079 8.19168 18.5008 8.34545 18.9324 8.61381C19.364 8.88217 19.7199 9.25624 19.9665 9.70061C20.2131 10.145 20.3423 10.6449 20.3416 11.1531C20.3309 11.6067 20.2253 12.0529 20.0316 12.4631L22.0916 14.4631C22.6319 14.151 23.2641 14.0372 23.8793 14.1412C24.4945 14.2453 25.0541 14.5607 25.4616 15.0331C25.7464 15.3062 25.9716 15.6353 26.1231 15.9996C26.2745 16.3639 26.3489 16.7557 26.3416 17.1501C26.3423 17.9379 26.0351 18.6947 25.4856 19.2591C25.2092 19.5479 24.876 19.7763 24.5071 19.9302C24.1381 20.084 23.7413 20.1599 23.3416 20.1531C22.9463 20.1594 22.5537 20.0855 22.1877 19.936C21.8216 19.7865 21.4896 19.5644 21.2116 19.2831C20.7407 18.8722 20.4273 18.3103 20.3251 17.6936C20.223 17.077 20.3384 16.444 20.6516 15.9031L18.6516 13.8431C18.5506 13.8888 18.4471 13.9289 18.3416 13.9631V20.3431C18.9222 20.5499 19.425 20.9305 19.7816 21.4331C20.1457 21.9328 20.3417 22.535 20.3416 23.1531C20.3495 23.5492 20.2756 23.9425 20.1245 24.3087C19.9734 24.6748 19.7485 25.0059 19.4636 25.2811C18.9191 25.8251 18.1852 26.1372 17.4156 26.1521C16.8596 26.1695 16.3097 26.0309 15.8283 25.7521C15.3469 25.4732 14.9532 25.0652 14.6916 24.5742C14.43 24.0832 14.311 23.5288 14.3482 22.9737C14.3853 22.4186 14.577 21.885 14.9016 21.4331C15.2583 20.9305 15.7611 20.5499 16.3416 20.3431V13.9631C15.7598 13.7587 15.2564 13.3776 14.9016 12.8731C14.5364 12.3742 14.3402 11.7715 14.3416 11.1531C14.3408 10.6982 14.447 10.2495 14.6516 9.84315L10.7516 5.94315L3.17265 13.5151C2.80097 13.8865 2.50611 14.3275 2.30491 14.8129C2.1037 15.2983 2.00009 15.8185 2 16.3439C1.99991 16.8694 2.10333 17.3897 2.30437 17.8751C2.5054 18.3605 2.80011 18.8016 3.17165 19.1731L13.5136 29.5151C14.2638 30.265 15.281 30.6863 16.3416 30.6863C17.4023 30.6863 18.4195 30.265 19.1696 29.5151L29.5136 19.1711C30.2635 18.421 30.6848 17.4038 30.6848 16.3431C30.6848 15.2825 30.2635 14.2653 29.5136 13.5151L19.1696 3.17115C18.4195 2.42126 17.4023 2 16.3416 2C15.281 2 14.2638 2.42126 13.5136 3.17115Z" fill="#155DFC"/>
</svg>
