<svg width="33" height="32" viewBox="0 0 33 32" fill="none" xmlns="http://www.w3.org/2000/svg">
<g clip-path="url(#clip0_54_494)">
<path d="M24.5703 0H7.57031C3.42818 0 0.0703125 3.35786 0.0703125 7.5V24.5C0.0703125 28.6421 3.42818 32 7.57031 32H24.5703C28.7124 32 32.0703 28.6421 32.0703 24.5V7.5C32.0703 3.35786 28.7124 0 24.5703 0Z" fill="#155DFC"/>
<path d="M6.07031 4.75L7.14656 16.8241H20.9853L20.5209 22.0029L16.0652 23.2076L11.6178 22.0046L11.3204 18.6794H7.31281L7.88594 25.0895L16.0643 27.361L24.2531 25.0895L25.3509 12.8319H10.7983L10.4329 8.74312H25.7127L26.0703 4.75H6.07031Z" fill="white"/>
<path d="M16.0703 4.75H6.07031L7.14656 16.8241H16.0703V12.8319H10.7983L10.4329 8.74312H16.0703V4.75ZM16.0703 23.2059L16.0652 23.2076L11.6178 22.0046L11.3204 18.6794H7.31281L7.88594 25.0895L16.0643 27.361L16.0704 27.3592L16.0703 23.2059Z" fill="white"/>
</g>
<defs>
<clipPath id="clip0_54_494">
<rect width="32" height="32" fill="white" transform="translate(0.0703125)"/>
</clipPath>
</defs>
</svg>
