<svg width="33" height="32" viewBox="0 0 33 32" fill="none" xmlns="http://www.w3.org/2000/svg">
<g clip-path="url(#clip0_54_504)">
<path d="M24.5703 0H7.57031C3.42818 0 0.0703125 3.35786 0.0703125 7.5V24.5C0.0703125 28.6421 3.42818 32 7.57031 32H24.5703C28.7124 32 32.0703 28.6421 32.0703 24.5V7.5C32.0703 3.35786 28.7124 0 24.5703 0Z" fill="#155DFC"/>
<path d="M8.4845 26.7415L10.9333 25.2595C11.4058 26.0972 11.8355 26.8059 12.8664 26.8059C13.8545 26.8059 14.4775 26.4194 14.4775 24.9159V14.6912H17.4847V24.9584C17.4847 28.073 15.659 29.4908 12.9953 29.4908C10.5896 29.4908 9.19325 28.2449 8.48438 26.7413M19.1181 26.4193L21.5666 25.0017C22.2112 26.0543 23.049 26.8275 24.531 26.8275C25.7771 26.8275 26.5716 26.2045 26.5716 25.3453C26.5716 24.3143 25.7554 23.949 24.3806 23.3478L23.629 23.0254C21.4594 22.1019 20.0201 20.9419 20.0201 18.4932C20.0201 16.2377 21.7386 14.5192 24.4238 14.5192C26.3355 14.5192 27.7102 15.1852 28.6982 16.925L26.3569 18.4287C25.8413 17.505 25.283 17.1399 24.4238 17.1399C23.543 17.1399 22.9845 17.6984 22.9845 18.4287C22.9845 19.3308 23.543 19.696 24.8317 20.2547L25.5835 20.5768C28.1396 21.6724 29.5789 22.7892 29.5789 25.3023C29.5789 28.009 27.4524 29.491 24.5955 29.491C21.8031 29.491 19.9987 28.1593 19.1181 26.4193Z" fill="white"/>
</g>
<defs>
<clipPath id="clip0_54_504">
<rect width="32" height="32" fill="white" transform="translate(0.0703125)"/>
</clipPath>
</defs>
</svg>
