<svg width="33" height="32" viewBox="0 0 33 32" fill="none" xmlns="http://www.w3.org/2000/svg">
<g clip-path="url(#clip0_54_512)">
<mask id="mask0_54_512" style="mask-type:luminance" maskUnits="userSpaceOnUse" x="0" y="0" width="33" height="32">
<path d="M16.0703 32C24.9069 32 32.0703 24.8366 32.0703 16C32.0703 7.16344 24.9069 0 16.0703 0C7.23376 0 0.0703125 7.16344 0.0703125 16C0.0703125 24.8366 7.23376 32 16.0703 32Z" fill="white"/>
</mask>
<g mask="url(#mask0_54_512)">
<path d="M16.0703 32C24.9069 32 32.0703 24.8366 32.0703 16C32.0703 7.16344 24.9069 0 16.0703 0C7.23376 0 0.0703125 7.16344 0.0703125 16C0.0703125 24.8366 7.23376 32 16.0703 32Z" fill="#155DFC"/>
<path d="M26.6497 28.0035L12.3623 9.59998H9.67041V22.3946H11.8239V12.335L24.9592 29.3057C25.551 28.9097 26.1158 28.4747 26.6497 28.0035Z" fill="white"/>
<path d="M20.5146 9.59998H22.648V22.4H20.5146V9.59998Z" fill="white"/>
</g>
</g>
<defs>
<clipPath id="clip0_54_512">
<rect width="32" height="32" fill="white" transform="translate(0.0703125)"/>
</clipPath>
</defs>
</svg>
