<svg width="36" height="32" viewBox="0 0 36 32" fill="none" xmlns="http://www.w3.org/2000/svg">
<path d="M29.6118 10.3776C29.2294 10.2464 28.8438 10.1249 28.4553 10.0131C28.5206 9.74644 28.5806 9.483 28.634 9.22419C29.5095 4.97423 28.9371 1.55037 26.9822 0.42307C25.1078 -0.657632 22.0424 0.469245 18.9465 3.16356C18.6414 3.42956 18.3431 3.70324 18.0518 3.98433C17.8568 3.79743 17.6583 3.61414 17.4566 3.43458C14.2119 0.553737 10.9597 -0.660439 9.00687 0.470087C7.13417 1.55416 6.57965 4.77282 7.36786 8.80061C7.44628 9.19952 7.53482 9.59638 7.6334 9.99079C7.17305 10.1216 6.72884 10.2608 6.30372 10.409C2.49965 11.7353 0.0703125 13.8138 0.0703125 15.9697C0.0703125 18.1964 2.67831 20.4298 6.64042 21.7841C6.96164 21.8934 7.28553 21.9947 7.61179 22.0879C7.50586 22.5127 7.41179 22.9404 7.32968 23.3704C6.57824 27.3283 7.16505 30.4709 9.0327 31.5481C10.9617 32.6605 14.1993 31.5172 17.3517 28.7615C17.6073 28.5374 17.8573 28.307 18.1015 28.0705C18.4169 28.3749 18.7408 28.6704 19.0727 28.9567C22.1265 31.5843 25.1423 32.6454 27.0081 31.5652C28.9353 30.4496 29.5617 27.0736 28.7485 22.9662C28.6844 22.6444 28.6126 22.3243 28.533 22.0059C28.7604 21.9386 28.9836 21.8692 29.2011 21.7971C33.3201 20.4325 36.0001 18.2262 36.0001 15.9697C36.0001 13.8059 33.4923 11.7135 29.6118 10.3776ZM28.7185 20.3403C28.5218 20.4052 28.3206 20.4681 28.1149 20.529C27.6602 19.0895 27.0466 17.5588 26.2956 15.9772C27.0122 14.4333 27.6022 12.9222 28.0442 11.492C28.4118 11.5984 28.7684 11.7105 29.1123 11.8288C32.4372 12.9735 34.4653 14.6657 34.4653 15.9697C34.4653 17.3586 32.2749 19.1617 28.7185 20.3403ZM27.2428 23.2643C27.6024 25.0805 27.6536 26.7226 27.4154 28.0064C27.2015 29.1599 26.7712 29.9289 26.239 30.237C25.1068 30.8924 22.6853 30.0405 20.0738 27.7932C19.7651 27.527 19.4639 27.2522 19.1704 26.9693C20.1829 25.8621 21.1947 24.5749 22.1822 23.1453C23.9192 22.9912 25.5601 22.7391 27.0483 22.3951C27.1217 22.691 27.1866 22.9807 27.2428 23.2643ZM12.3196 30.1237C11.2133 30.5143 10.3322 30.5255 9.79958 30.2184C8.66624 29.5648 8.19508 27.0415 8.83775 23.6568C8.91415 23.2568 9.00162 22.859 9.10007 22.4639C10.5718 22.7895 12.2008 23.0236 13.9419 23.1648C14.9361 24.5637 15.9771 25.8495 17.0262 26.9754C16.8033 27.1911 16.575 27.4013 16.3418 27.6058C14.9476 28.8243 13.5507 29.6889 12.3196 30.1237ZM7.13698 20.3317C5.38498 19.7328 3.9381 18.9546 2.94638 18.1053C2.05515 17.3422 1.60533 16.5845 1.60533 15.9697C1.60533 14.6614 3.55579 12.9926 6.80898 11.8584C7.20379 11.7209 7.61698 11.5911 8.04575 11.4692C8.49544 12.9317 9.08519 14.4608 9.79691 16.0071C9.07593 17.5762 8.47775 19.1297 8.02372 20.6095C7.72591 20.5241 7.43024 20.4315 7.13698 20.3317ZM8.87424 8.50574C8.19901 5.05493 8.64744 2.45184 9.776 1.79851C10.978 1.10265 13.6359 2.09479 16.4375 4.58237C16.6202 4.74494 16.7999 4.91082 16.9766 5.07991C15.9326 6.20089 14.9012 7.47711 13.9158 8.8677C12.226 9.02433 10.6084 9.27584 9.12126 9.61282C9.02961 9.24598 8.94725 8.87674 8.87424 8.50574ZM24.3728 12.333C24.0215 11.7262 23.6572 11.1271 23.2801 10.5361C24.4265 10.681 25.5249 10.8735 26.5563 11.1087C26.2467 12.1012 25.8608 13.1389 25.4065 14.2027C25.0744 13.5726 24.7297 12.9493 24.3728 12.333ZM18.0525 6.17703C18.7604 6.94405 19.4695 7.80033 20.1669 8.72946C18.7521 8.66263 17.335 8.66235 15.9203 8.72861C16.6184 7.80805 17.3335 6.95289 18.0525 6.17703ZM11.6916 12.3434C11.3391 12.9547 11.0009 13.5742 10.6773 14.2013C10.2305 13.1412 9.848 12.0989 9.53572 11.0923C10.5608 10.8629 11.654 10.6754 12.7931 10.5331C12.4119 11.1278 12.0446 11.7315 11.6916 12.3434ZM12.8258 21.5154C11.649 21.3841 10.5394 21.2062 9.51452 20.9831C9.83172 19.9585 10.2226 18.8939 10.6792 17.8111C11.004 18.4387 11.3436 19.0586 11.6977 19.6702C12.0618 20.299 12.4387 20.9149 12.8258 21.5154ZM18.0949 25.8705C17.3673 25.0857 16.6417 24.2173 15.9331 23.2834C16.621 23.3104 17.3224 23.3241 18.0352 23.3241C18.7676 23.3241 19.4915 23.3077 20.2041 23.276C19.5044 24.2267 18.798 25.0963 18.0949 25.8705ZM25.4209 17.7558C25.9012 18.8506 26.306 19.9095 26.6274 20.9165C25.5857 21.1543 24.4609 21.3457 23.2758 21.4879C23.6556 20.8859 24.0233 20.2764 24.3788 19.6597C24.7403 19.0329 25.0877 18.3981 25.4209 17.7558ZM23.0493 18.8928C22.505 19.8383 21.9301 20.7658 21.3256 21.6739C20.2305 21.7515 19.133 21.79 18.0352 21.7894C16.917 21.7894 15.8295 21.7546 14.7822 21.6866C14.1618 20.7807 13.576 19.8515 13.026 18.9012C12.4784 17.956 11.9672 16.9903 11.493 16.0062C11.966 15.0219 12.4758 14.0558 13.0215 13.1098L13.0213 13.1099C13.5667 12.1637 14.1478 11.2386 14.7635 10.3365C15.832 10.2556 16.9277 10.2135 18.0351 10.2135C19.1475 10.2135 20.2448 10.2561 21.313 10.3375C21.9224 11.2382 22.4999 12.1602 23.0442 13.1017C23.5916 14.0456 24.1082 15.007 24.5931 15.9845C24.1131 16.9719 23.5982 17.942 23.0493 18.8928ZM26.2156 1.75261C27.4187 2.44651 27.8866 5.24468 27.1307 8.91416C27.0822 9.14845 27.0284 9.38658 26.9693 9.62854C25.4785 9.2844 23.8598 9.02854 22.1651 8.86953C21.1778 7.46363 20.1548 6.18546 19.1279 5.07893C19.397 4.8195 19.6726 4.56679 19.9542 4.32103C22.6069 2.01268 25.086 1.10125 26.2156 1.75261ZM18.0352 12.7613C19.8072 12.7613 21.2436 14.1978 21.2436 15.9697C21.2436 17.7417 19.8072 19.1782 18.0352 19.1782C16.2633 19.1782 14.8268 17.7417 14.8268 15.9697C14.8268 14.1978 16.2633 12.7613 18.0352 12.7613Z" fill="#155DFC"/>
</svg>
