<svg width="33" height="32" viewBox="0 0 33 32" fill="none" xmlns="http://www.w3.org/2000/svg">
<g clip-path="url(#clip0_54_508)">
<path d="M24.5703 0H7.57031C3.42818 0 0.0703125 3.35786 0.0703125 7.5V24.5C0.0703125 28.6421 3.42818 32 7.57031 32H24.5703C28.7124 32 32.0703 28.6421 32.0703 24.5V7.5C32.0703 3.35786 28.7124 0 24.5703 0Z" fill="#155DFC"/>
<path d="M7.14684 16.1062L7.13672 17.4167H11.3017V29.2515H14.2478V17.4167H18.4128V16.1315C18.4128 15.4204 18.3977 14.8262 18.3773 14.8109C18.3621 14.7907 15.8275 14.7804 12.7545 14.7855L7.16209 14.8008L7.14684 16.1062ZM25.8913 14.7635C26.704 14.9668 27.3237 15.3274 27.8926 15.9165C28.1872 16.2315 28.624 16.8055 28.6596 16.9427C28.6697 16.9833 27.278 17.9179 26.4348 18.441C26.4043 18.4614 26.2823 18.3293 26.1452 18.1262C25.7338 17.5268 25.3021 17.2677 24.6417 17.222C23.6716 17.1559 23.0468 17.6639 23.052 18.5122C23.052 18.761 23.0875 18.9083 23.1891 19.1115C23.4023 19.5534 23.7986 19.8175 25.0431 20.3559C27.3338 21.3414 28.3141 21.9915 28.9237 22.9159C29.6043 23.947 29.7567 25.5928 29.2945 26.8169C28.7866 28.1477 27.5268 29.0518 25.7541 29.3515C25.2056 29.448 23.9052 29.4328 23.3161 29.3262C22.031 29.0975 20.812 28.4627 20.0602 27.6297C19.7656 27.3045 19.1916 26.4563 19.2272 26.3953C19.2423 26.375 19.3745 26.2938 19.5217 26.2074C19.664 26.1262 20.2025 25.8163 20.7103 25.5217L21.6297 24.9883L21.8227 25.2728C22.092 25.6842 22.6811 26.248 23.0367 26.4359C24.0576 26.9744 25.4596 26.8982 26.1503 26.2785C26.445 26.0093 26.5668 25.7299 26.5668 25.3185C26.5668 24.9477 26.5211 24.7852 26.3281 24.5058C26.0792 24.1503 25.5713 23.8505 24.1287 23.2258C22.478 22.5147 21.7668 22.0728 21.1167 21.3718C20.7408 20.9655 20.3852 20.3153 20.238 19.7718C20.1161 19.3198 20.0856 18.187 20.1821 17.7299C20.5223 16.135 21.7262 15.0227 23.4633 14.6924C24.0272 14.5858 25.3376 14.6264 25.8913 14.7635Z" fill="white"/>
</g>
<defs>
<clipPath id="clip0_54_508">
<rect width="32" height="32" fill="white" transform="translate(0.0703125)"/>
</clipPath>
</defs>
</svg>
